<svg width="585" height="339" viewBox="0 0 585 339" fill="none" xmlns="http://www.w3.org/2000/svg">
<g clip-path="url(#clip0_731_220)">
<path d="M47.3767 179.969C50.8666 179.187 53.6852 176.607 54.7641 173.189L65.764 138.324C66.5269 135.906 68.5092 134.067 70.9799 133.493L84.5366 130.334C87.918 129.546 91.0712 128.004 93.776 125.827L95.5307 124.413C96.9313 123.282 96.434 121.034 94.6891 120.604L92.5041 120.068C89.1398 119.241 85.6266 119.19 82.2349 119.917L68.6171 122.823C66.1404 123.352 63.5646 122.529 61.8537 120.663L37.166 93.7622C34.748 91.1236 31.1082 89.9794 27.6112 90.7596C37.8673 102.576 45.7257 118.437 48.7969 125.104C49.215 126.012 48.6825 127.075 47.6986 127.289L46.3234 124.587C45.6544 123.272 44.0843 122.693 42.7244 123.267L39.0672 124.808C38.5746 125.014 38.1607 125.381 37.8954 125.85C37.6189 126.339 37.1882 126.718 36.6674 126.919L35.3409 127.433L36.9341 127.358C37.4281 127.335 37.9219 127.467 38.3392 127.73L39.0424 128.179L40.1868 128.882L37.2983 129.5C35.4457 129.9 33.6441 130.529 31.9541 131.377L23.4168 135.652L17.6347 126.692C16.395 124.77 13.9995 123.96 11.8555 124.735L8.60518 125.907L17.0058 138.862L14.6286 140.054C14.2401 140.251 14.3685 140.839 14.805 140.85L17.4595 140.919L15.323 156.227L18.784 155.902C21.0463 155.691 22.8633 153.951 23.191 151.707L24.7259 141.103L34.1594 141.343C36.0577 141.392 37.9513 141.198 39.7952 140.767L42.6721 140.095L41.9303 141.22L41.4809 141.925C41.218 142.344 40.8263 142.671 40.366 142.862L38.8895 143.472L40.3108 143.378C40.8667 143.338 41.4212 143.496 41.8771 143.825C42.3145 144.136 42.8395 144.295 43.3771 144.274L47.3393 144.117C48.8129 144.055 49.9907 142.867 50.0399 141.39L50.1461 138.356C51.1186 138.125 52.0521 138.861 52.057 139.865C52.0895 147.21 51.6637 164.919 47.3656 179.989L47.3767 179.969Z" fill="white"/>
<path d="M131.07 112.575C130.323 112.432 129.672 111.897 129.427 111.118C129.059 109.985 129.681 108.764 130.817 108.403C133.1 107.661 135.388 106.935 137.682 106.217C138.817 105.864 140.025 106.498 140.378 107.635C140.73 108.772 140.096 109.983 138.961 110.337C136.683 111.05 134.41 111.772 132.142 112.509C131.784 112.624 131.422 112.643 131.077 112.576L131.07 112.575Z" fill="white"/>
<path d="M866.506 289.056C866.09 288.976 865.697 288.776 865.379 288.451C862.014 285.031 858.538 281.582 855.057 278.197C854.201 277.367 854.185 276.001 855.013 275.149C855.843 274.29 857.205 274.273 858.056 275.095C861.563 278.499 865.057 281.967 868.453 285.415C869.285 286.263 869.278 287.631 868.431 288.465C867.909 288.98 867.184 289.178 866.514 289.05L866.506 289.056ZM845.552 268.722C845.171 268.649 844.803 268.469 844.498 268.191C840.966 264.921 837.335 261.633 833.712 258.419C832.817 257.632 832.735 256.269 833.528 255.374C834.314 254.477 835.675 254.393 836.568 255.187C840.217 258.42 843.873 261.728 847.422 265.023C848.297 265.835 848.35 267.2 847.54 268.071C847.015 268.637 846.257 268.857 845.552 268.722ZM823.694 249.366C823.341 249.298 823.005 249.146 822.71 248.892C819.031 245.777 815.26 242.652 811.501 239.61C810.577 238.862 810.436 237.502 811.183 236.576C811.931 235.65 813.288 235.507 814.212 236.255C817.996 239.317 821.794 242.461 825.491 245.594C826.397 246.361 826.515 247.724 825.741 248.637C825.221 249.256 824.427 249.506 823.687 249.364L823.694 249.366ZM801.005 230.993C800.68 230.93 800.37 230.798 800.096 230.584C796.291 227.636 792.385 224.675 788.499 221.8C787.546 221.09 787.344 219.74 788.047 218.783C788.756 217.828 790.103 217.624 791.058 218.327C794.967 221.23 798.9 224.203 802.731 227.171C803.673 227.9 803.845 229.252 803.116 230.196C802.602 230.859 801.78 231.141 801.005 230.993ZM151.877 106.212C151.101 106.064 150.442 105.498 150.209 104.692C149.881 103.545 150.541 102.353 151.686 102.023C156.343 100.681 161.081 99.37 165.777 98.131C166.925 97.8236 168.109 98.5119 168.406 99.6675C168.712 100.817 168.024 102.004 166.871 102.303C162.205 103.54 157.491 104.834 152.872 106.169C152.539 106.266 152.194 106.273 151.877 106.212ZM777.548 213.615C777.259 213.559 776.968 213.438 776.71 213.256C772.779 210.467 768.752 207.681 764.755 204.967C763.771 204.303 763.51 202.956 764.181 201.972C764.845 200.986 766.189 200.723 767.172 201.395C771.195 204.121 775.246 206.934 779.204 209.735C780.176 210.427 780.408 211.768 779.717 212.741C779.215 213.458 778.358 213.77 777.555 213.616L777.548 213.615ZM180.047 98.7632C179.243 98.6092 178.564 97.9957 178.361 97.151C178.086 95.9924 178.799 94.8254 179.949 94.5476C184.654 93.413 189.448 92.31 194.194 91.264C195.354 91.0101 196.507 91.7437 196.758 92.9124C197.011 94.0741 196.277 95.23 195.111 95.4825C190.395 96.5199 185.632 97.6141 180.958 98.74C180.652 98.8131 180.343 98.82 180.047 98.7632ZM753.387 197.237C753.119 197.186 752.861 197.085 752.62 196.929C748.576 194.309 744.438 191.685 740.328 189.139C739.315 188.513 739.007 187.187 739.632 186.172C740.258 185.156 741.582 184.846 742.595 185.472C746.731 188.03 750.888 190.672 754.959 193.305C755.961 193.951 756.245 195.287 755.593 196.29C755.103 197.053 754.212 197.395 753.38 197.236L753.387 197.237ZM208.513 92.5206C207.674 92.3599 206.98 91.707 206.807 90.8169C206.579 89.6452 207.336 88.5159 208.506 88.2859C213.253 87.3498 218.089 86.4454 222.877 85.605C224.049 85.3975 225.164 86.1823 225.37 87.357C225.576 88.5318 224.792 89.6486 223.619 89.8561C218.862 90.6878 214.057 91.5835 209.339 92.5179C209.058 92.5739 208.781 92.572 208.52 92.522L208.513 92.5206ZM728.581 181.864C728.341 181.818 728.109 181.73 727.893 181.601C723.745 179.143 719.506 176.698 715.299 174.317C714.264 173.73 713.902 172.416 714.481 171.377C715.068 170.339 716.381 169.969 717.416 170.555C721.65 172.948 725.907 175.412 730.082 177.882C731.106 178.488 731.444 179.813 730.838 180.839C730.362 181.649 729.448 182.03 728.581 181.864ZM237.216 87.4808C236.348 87.3146 235.635 86.6139 235.49 85.6926C235.306 84.5148 236.117 83.4104 237.291 83.2326C242.074 82.4937 246.944 81.7936 251.76 81.149C252.944 80.995 254.021 81.8238 254.182 83.0046C254.336 84.184 253.507 85.2702 252.328 85.4326C247.542 86.0756 242.702 86.767 237.949 87.5042C237.7 87.5444 237.454 87.5338 237.214 87.4878L237.216 87.4808ZM703.177 167.512C702.966 167.471 702.759 167.402 702.562 167.291C698.314 165.005 693.986 162.726 689.687 160.518C688.629 159.978 688.213 158.675 688.753 157.614C689.292 156.553 690.593 156.136 691.652 156.676C695.97 158.895 700.332 161.188 704.599 163.485C705.645 164.052 706.038 165.357 705.472 166.406C705.017 167.256 704.067 167.675 703.171 167.503L703.177 167.512ZM266.103 83.6116C265.201 83.4387 264.48 82.7 264.373 81.7346C264.241 80.5521 265.089 79.4841 266.27 79.3443C271.081 78.8013 275.973 78.2957 280.811 77.8385C281.995 77.7283 283.04 78.6025 283.156 79.7893C283.265 80.9747 282.391 82.0303 281.208 82.1405C276.4 82.5889 271.538 83.0929 266.757 83.6343C266.533 83.6573 266.315 83.6521 266.11 83.6129L266.103 83.6116ZM677.225 154.19C677.042 154.155 676.863 154.098 676.683 154.005C672.359 151.895 667.938 149.788 663.55 147.746C662.469 147.246 662.006 145.963 662.505 144.88C663.005 143.797 664.287 143.324 665.367 143.832C669.784 145.879 674.224 147.997 678.574 150.127C679.643 150.647 680.083 151.939 679.563 153.012C679.128 153.91 678.156 154.368 677.225 154.19ZM295.12 80.9023C294.189 80.724 293.448 79.9375 293.376 78.9422C293.289 77.7537 294.182 76.7164 295.367 76.6358C300.194 76.2788 305.106 75.9677 309.95 75.7093C311.14 75.6442 312.156 76.5568 312.213 77.7469C312.277 78.9383 311.367 79.9505 310.178 80.0156C305.355 80.278 300.48 80.5817 295.676 80.9357C295.483 80.95 295.296 80.9361 295.113 80.901L295.12 80.9023ZM324.224 79.3377C323.258 79.1527 322.511 78.3211 322.482 77.2901C322.44 76.0956 323.376 75.1031 324.561 75.0591C329.41 74.8896 334.329 74.7773 339.174 74.7024C340.362 74.681 341.341 75.6376 341.354 76.8267C341.368 78.0157 340.419 78.9986 339.233 79.0129C334.417 79.0862 329.526 79.2039 324.708 79.3647C324.546 79.3703 324.382 79.3533 324.226 79.3236L324.224 79.3377ZM650.767 141.906C650.612 141.876 650.453 141.831 650.306 141.759C645.898 139.816 641.4 137.884 636.94 136.026C635.844 135.567 635.326 134.304 635.785 133.205C636.244 132.106 637.507 131.579 638.602 132.045C643.089 133.916 647.613 135.86 652.041 137.814C653.133 138.294 653.62 139.567 653.141 140.654C652.727 141.593 651.733 142.091 650.767 141.906ZM353.365 78.9155C352.364 78.7237 351.612 77.8399 351.617 76.7861C351.626 75.594 352.593 74.6294 353.782 74.6376C358.646 74.6612 363.558 74.731 368.397 74.8451C369.581 74.8816 370.526 75.8611 370.495 77.0562C370.464 78.2442 369.479 79.1907 368.286 79.1599C363.477 79.0441 358.594 78.9727 353.759 78.9545C353.621 78.95 353.492 78.9398 353.365 78.9155ZM623.851 130.677C623.725 130.652 623.593 130.613 623.463 130.566C618.992 128.801 614.423 127.054 609.886 125.364C608.774 124.953 608.201 123.708 608.62 122.587C609.038 121.474 610.281 120.899 611.393 121.317C615.957 123.012 620.552 124.779 625.052 126.549C626.159 126.988 626.701 128.242 626.263 129.344C625.878 130.325 624.853 130.869 623.851 130.677ZM382.503 79.6134C381.474 79.4161 380.709 78.4859 380.763 77.4049C380.815 76.2139 381.818 75.2927 383.007 75.3446C387.856 75.556 392.769 75.8162 397.601 76.1123C398.793 76.1868 399.694 77.209 399.611 78.4017C399.537 79.5887 398.515 80.4988 397.325 80.4172C392.521 80.1194 387.638 79.8576 382.81 79.6502C382.702 79.6441 382.602 79.6323 382.496 79.612L382.503 79.6134ZM596.513 120.509C596.407 120.489 596.31 120.463 596.207 120.429C591.658 118.839 587.025 117.271 582.432 115.761C581.305 115.391 580.683 114.173 581.054 113.036C581.424 111.905 582.647 111.283 583.775 111.653C588.396 113.168 593.057 114.742 597.626 116.343C598.749 116.734 599.339 117.967 598.948 119.093C598.591 120.116 597.544 120.699 596.514 120.502L596.513 120.509ZM411.595 81.4303C410.53 81.2263 409.768 80.2453 409.857 79.1343C409.953 77.9443 410.993 77.0595 412.179 77.1623C417.007 77.56 421.906 78.0079 426.732 78.4932C427.907 78.6158 428.779 79.6692 428.655 80.8538C428.537 82.0398 427.479 82.9064 426.297 82.7825C421.494 82.2942 416.623 81.8517 411.823 81.4594C411.744 81.4516 411.665 81.4438 411.588 81.4289L411.595 81.4303ZM568.806 111.428C568.728 111.414 568.65 111.399 568.576 111.37C563.971 109.96 559.273 108.577 554.629 107.255C553.485 106.933 552.823 105.737 553.145 104.59C553.467 103.443 554.654 102.777 555.805 103.1C560.477 104.427 565.195 105.822 569.828 107.237C570.967 107.587 571.605 108.793 571.256 109.928C570.928 110.993 569.857 111.623 568.793 111.419L568.806 111.428ZM440.596 84.3723C439.496 84.1615 438.729 83.1284 438.865 81.9973C439.011 80.8167 440.08 79.9669 441.265 80.1134C446.081 80.6918 450.957 81.3332 455.762 82.0048C456.946 82.1584 457.758 83.2589 457.597 84.4438C457.436 85.6287 456.344 86.4449 455.161 86.2842C450.386 85.611 445.536 84.982 440.751 84.402C440.701 84.3925 440.652 84.3831 440.603 84.3736L440.596 84.3723ZM540.755 103.454C540.705 103.444 540.656 103.435 540.606 103.425C539.083 103.023 537.551 102.627 536.026 102.233C532.87 101.423 529.668 100.626 526.517 99.8686C525.357 99.5878 524.651 98.4272 524.933 97.2652C525.212 96.1103 526.367 95.3867 527.532 95.6759C530.703 96.4446 533.926 97.2453 537.096 98.0578C538.635 98.4552 540.174 98.8526 541.705 99.2558C542.853 99.5564 543.541 100.736 543.239 101.893C542.947 102.995 541.852 103.678 540.752 103.468L540.755 103.454ZM469.464 88.4241C468.329 88.2067 467.557 87.1213 467.743 85.963C467.932 84.7835 469.036 83.9842 470.213 84.1731C474.993 84.9352 479.841 85.7616 484.623 86.6267C485.798 86.8297 486.568 87.9588 486.358 89.1342C486.147 90.3097 485.027 91.0838 483.854 90.8737C479.099 90.014 474.278 89.2001 469.527 88.4363C469.506 88.4322 469.485 88.4282 469.464 88.4241ZM512.415 96.6026C512.415 96.6026 512.373 96.5945 512.352 96.5905C507.661 95.5525 502.876 94.5478 498.133 93.595C496.964 93.3637 496.21 92.2232 496.449 91.0531C496.679 89.8888 497.803 89.1373 498.966 89.3601L498.987 89.3642C503.759 90.3225 508.572 91.3325 513.291 92.3759C514.454 92.6355 515.184 93.786 514.925 94.9449C514.67 96.0898 513.557 96.8215 512.415 96.6026Z" fill="white"/>
</g>
<defs>
<clipPath id="clip0_731_220">
<rect width="893" height="174" fill="white" transform="translate(32.7441) rotate(10.8468)"/>
</clipPath>
</defs>
</svg>
