<svg width="45" height="47" viewBox="0 0 45 47" fill="none" xmlns="http://www.w3.org/2000/svg">
<path d="M26.6957 26.4623L26.7067 26.4265L27.5279 24.6384C27.6076 24.5059 27.6654 24.4452 27.7012 24.4561L43.665 32.3954L44.5202 29.5982C44.893 28.3789 44.3971 27.0509 43.3482 26.3773C38.7593 22.6608 34.4413 19.3407 30.5827 15.4161C30.6784 14.9748 30.7741 14.5335 30.8698 14.0922C31.466 11.3727 31.8001 8.61224 31.9331 5.86873C31.984 5.06082 31.9991 4.24194 31.9673 3.44797C31.9634 2.81937 31.7583 2.20767 31.3908 1.74238C31.0342 1.24124 30.5153 0.886507 29.9056 0.70012C29.8339 0.678192 29.7981 0.667228 29.7263 0.645301C29.6905 0.634337 29.6546 0.623372 29.6187 0.612408C29.5829 0.601444 29.547 0.590481 29.5112 0.579517C29.4394 0.557589 29.4036 0.546625 29.3319 0.524697C28.7222 0.33831 28.0936 0.342194 27.5178 0.558277C26.9419 0.77436 26.4408 1.13092 26.0861 1.64988C25.6406 2.33719 25.2062 2.98863 24.7608 3.67594C23.29 6.04965 22.0593 8.53597 21.0438 11.0881C20.8763 11.5074 20.7089 11.9268 20.5415 12.3462C15.1479 13.4421 9.67571 13.769 3.82893 14.2951C2.54683 14.256 1.42896 15.0906 1.05619 16.3099L0.200998 19.1071L17.8752 21.452C17.9111 21.463 17.925 21.5457 17.917 21.7001L17.5979 23.6416L17.5869 23.6775L16.3784 30.837L15.489 36.0549C15.1831 36.1575 14.7228 36.2521 14.1689 36.3964C11.6584 37.0405 7.43932 38.1427 7.43932 38.1427L6.72667 40.4737L12.9777 40.9339L14.5109 41.0497L16.5072 41.1895C16.7443 41.1836 16.9954 41.2603 17.2105 41.3261C17.4616 41.4028 17.7126 41.4796 17.87 41.6061L19.6032 42.6066L20.939 43.3679L26.3787 46.4819L27.0914 44.1509C27.0914 44.1509 24.2099 40.8779 22.4888 38.94C22.1462 38.5216 21.8175 38.1858 21.5854 37.9188L23.7659 33.0955L26.6957 26.4623Z" fill="white"/>
</svg>
