<svg width="48" height="48" viewBox="0 0 48 48" fill="none" xmlns="http://www.w3.org/2000/svg">
<g clip-path="url(#clip0_731_422)">
<path d="M3.42843 27.4284H49.7141C50.1784 27.4284 50.5802 27.598 50.9195 27.9373C51.2588 28.2766 51.4284 28.6784 51.4284 29.1427V41.1427H44.5713V34.2855H3.42843V41.1427H-3.42871V8.57122C-3.42871 8.10693 -3.25907 7.70515 -2.91978 7.36586C-2.5805 7.02658 -2.17871 6.85693 -1.71443 6.85693H1.71415C2.17843 6.85693 2.58022 7.02658 2.9195 7.36586C3.25879 7.70515 3.42843 8.10693 3.42843 8.57122V27.4284ZM18.857 18.8569C18.857 16.9641 18.1874 15.348 16.8481 14.0087C15.5088 12.6694 13.8927 11.9998 11.9999 11.9998C10.107 11.9998 8.49093 12.6694 7.15165 14.0087C5.81236 15.348 5.14272 16.9641 5.14272 18.8569C5.14272 20.7498 5.81236 22.3659 7.15165 23.7051C8.49093 25.0444 10.107 25.7141 11.9999 25.7141C13.8927 25.7141 15.5088 25.0444 16.8481 23.7051C18.1874 22.3659 18.857 20.7498 18.857 18.8569ZM51.4284 25.7141V23.9998C51.4284 21.1605 50.424 18.7364 48.415 16.7275C46.4061 14.7185 43.982 13.7141 41.1427 13.7141H22.2856C21.8213 13.7141 21.4195 13.8837 21.0802 14.223C20.7409 14.5623 20.5713 14.9641 20.5713 15.4284V25.7141H51.4284Z" fill="white"/>
</g>
<defs>
<clipPath id="clip0_731_422">
<rect width="48" height="48" fill="white"/>
</clipPath>
</defs>
</svg>
