<svg width="48" height="48" viewBox="0 0 48 48" fill="none" xmlns="http://www.w3.org/2000/svg">
<path fill-rule="evenodd" clip-rule="evenodd" d="M13.791 18.8425C16.3143 15.2568 17.8893 11.1422 18.5212 6.48405C18.5814 6.04032 18.8955 5.67134 19.3266 5.53792C23.672 4.19315 26.1424 6.33008 26.1016 11.2027C26.0937 12.1486 26.0501 12.9893 25.9571 14.2751C25.7496 17.1471 25.7661 17.9309 26.0876 18.4583C26.3967 18.9653 27.4002 19.1384 29.7735 18.6878C30.5223 18.5456 31.2736 18.3844 32.1056 18.1909C32.4729 18.1054 35.1186 17.4599 35.7949 17.3138C37.0849 17.0353 38.0105 16.9174 38.8245 16.9673C41.0294 17.1026 42.1995 18.5222 42.4017 21.2422C42.7578 26.0322 41.6576 35.6536 40.56 39.1976C39.4384 42.819 37.4824 44.186 32.7872 44.2685C29.7685 44.3216 25.1257 44.3216 18.8371 44.2684C17.2318 44.2311 15.777 43.9202 14.4829 43.339C14.8461 42.5869 15.0496 41.7444 15.0496 40.8548V22.4228C15.0496 21.0697 14.5789 19.8256 13.791 18.8425Z" fill="#BC0000"/>
<path opacity="0.3" fill-rule="evenodd" clip-rule="evenodd" d="M6.91503 18.9668C4.98959 18.9668 3.42871 20.5141 3.42871 22.4228V40.8548C3.42871 42.7635 4.98959 44.3108 6.91503 44.3108H9.23924C11.1647 44.3108 12.7256 42.7635 12.7256 40.8548V22.4228C12.7256 20.5141 11.1647 18.9668 9.23924 18.9668H6.91503Z" fill="#BC0000"/>
</svg>
