<svg width="42" height="42" viewBox="0 0 42 42" fill="none" xmlns="http://www.w3.org/2000/svg">
<path d="M21 0C9.402 0 0 9.402 0 21C0 32.598 9.402 42 21 42C32.598 42 42 32.598 42 21C42 9.402 32.598 0 21 0ZM6.68175 20.7491C5.90625 20.2266 5.81466 19.3293 6.33047 18.6672C7.31944 17.3975 8.55469 16.5 10.5128 16.5C12.471 16.5 13.7167 17.3993 14.6993 18.6726C15.2115 19.3359 15.0522 20.2673 14.3442 20.7486C14.0709 20.9337 13.7497 21.0001 13.414 21.0001C12.9067 21.0001 12.426 20.8014 12.1282 20.4167C11.8096 20.0027 11.4137 19.5001 10.5128 19.5001C9.6165 19.5001 9.21741 20.0051 8.89388 20.4208C8.59734 20.8023 8.11819 21 7.61241 21.0001C7.27669 21 6.95494 20.9332 6.68175 20.7491ZM33.9605 26.1511C31.7444 30.4424 26.6572 33 21.0004 33C15.2002 33 9.98006 30.353 8.01075 26.0928C7.66734 25.3485 7.99284 24.4631 8.73581 24.1187C8.93146 24.0282 9.14445 23.9814 9.36 23.9815C9.93778 23.9815 10.4679 24.32 10.7107 24.8439C12.2029 28.0723 16.3378 30 21.0004 30C25.5568 30 29.6066 28.0998 31.3178 24.7861C31.4428 24.5432 31.6324 24.3395 31.8657 24.1974C32.099 24.0554 32.3669 23.9805 32.6401 23.981C32.8775 23.981 33.1145 24.0392 33.3252 24.1493C34.0501 24.5248 34.3363 25.4235 33.9605 26.1511ZM35.3443 20.7485C35.071 20.9336 34.7498 21 34.4141 21C33.9067 21 33.4261 20.8013 33.1282 20.4166C32.8096 20.0026 32.4138 19.5 31.5128 19.5C30.6165 19.5 30.2175 20.005 29.894 20.4207C29.5974 20.8022 29.1182 20.9999 28.6124 21C28.2767 21 27.9548 20.9332 27.6817 20.7491C26.9062 20.2266 26.8147 19.3293 27.3305 18.6672C28.3194 17.3975 29.5547 16.5 31.5128 16.5C33.4711 16.5 34.7168 17.3993 35.6993 18.6726C36.2116 19.3359 36.0523 20.2673 35.3443 20.7485Z" fill="#BC0000"/>
</svg>
