<svg width="50" height="50" viewBox="0 0 50 50" fill="none" xmlns="http://www.w3.org/2000/svg">
<path d="M41.3281 6.09375C40.0781 6.09375 38.9844 7.10938 38.9844 8.4375C38.9844 9.76562 40 10.7812 41.3281 10.7812C42.5781 10.7812 43.6719 9.76562 43.6719 8.4375C43.6719 7.10938 42.5781 6.09375 41.3281 6.09375ZM41.3281 3.67187C41.7969 3.67187 42.1094 3.28125 42.1094 2.89062V0.78125C42.1094 0.3125 41.7188 0 41.3281 0C40.9375 0 40.5469 0.390625 40.5469 0.78125V2.8125C40.4688 3.28125 40.8594 3.67187 41.3281 3.67187ZM40.4688 13.75V15.7813C40.4688 16.25 40.8594 16.5625 41.25 16.5625C41.6406 16.5625 42.0312 16.1719 42.0312 15.7813V13.75C42.0312 13.2812 41.6406 12.9688 41.25 12.9688C40.8594 12.9688 40.4688 13.2812 40.4688 13.75ZM45.9375 8.28125C45.9375 8.75 46.3281 9.0625 46.7188 9.0625H48.75C49.2188 9.0625 49.5312 8.67188 49.5312 8.28125C49.5312 7.89063 49.1406 7.5 48.75 7.5H46.7188C46.3281 7.5 45.9375 7.89063 45.9375 8.28125ZM33.8281 9.14062H35.8594C36.3281 9.14062 36.6406 8.75 36.6406 8.35938C36.6406 7.96875 36.25 7.57812 35.8594 7.57812H33.8281C33.3594 7.57812 33.0469 7.96875 33.0469 8.35938C33.0469 8.75 33.3594 9.14062 33.8281 9.14062ZM44.6094 11.5625C44.2969 11.875 44.2969 12.4219 44.6094 12.7344L46.0938 14.2188C46.25 14.375 46.4844 14.4531 46.6406 14.4531C46.7969 14.4531 47.0312 14.375 47.1875 14.2188C47.5 13.9063 47.5 13.3594 47.1875 13.0469L45.7031 11.5625C45.3906 11.25 44.9219 11.25 44.6094 11.5625ZM36.875 5C37.0312 5.15625 37.2656 5.23438 37.4219 5.23438C37.5781 5.23438 37.8125 5.15625 37.9687 5C38.2812 4.6875 38.2812 4.14062 37.9687 3.82812L36.4844 2.34375C36.1719 2.03125 35.625 2.03125 35.3125 2.34375C35 2.65625 35 3.20312 35.3125 3.51562L36.875 5ZM36.875 11.5625L35.3906 13.0469C35.0781 13.3594 35.0781 13.9063 35.3906 14.2188C35.5469 14.375 35.7812 14.4531 35.9375 14.4531C36.1719 14.4531 36.3281 14.375 36.4844 14.2188L37.9687 12.7344C38.2812 12.4219 38.2812 11.875 37.9687 11.5625C37.7344 11.25 37.1875 11.25 36.875 11.5625ZM45.1562 5.3125C45.3906 5.3125 45.5469 5.23438 45.7031 5.07812L47.1875 3.59375C47.5 3.28125 47.5 2.73438 47.1875 2.42188C46.875 2.10938 46.3281 2.10938 46.0156 2.42188L44.6094 3.90625C44.2969 4.21875 44.2969 4.76562 44.6094 5.07812C44.7656 5.23438 44.9219 5.3125 45.1562 5.3125ZM3.20312 5.39062C3.75 5.3125 4.21875 5.39062 4.6875 5.70312C5.07812 6.01562 5.39062 6.48437 5.46875 6.95312C5.54688 7.34375 5.85938 7.65625 6.25 7.65625H6.40625C6.875 7.57812 7.1875 7.1875 7.10938 6.71875C6.95313 5.625 7.65625 4.60938 8.75 4.45312C9.21875 4.375 9.53125 3.98438 9.45313 3.51562C9.375 3.04688 8.98438 2.73438 8.51562 2.8125C7.34375 3.04688 6.40625 3.75 5.9375 4.60938C5.85938 4.53125 5.78125 4.45312 5.625 4.375C4.84375 3.82812 3.90625 3.59375 2.96875 3.75C2.5 3.82813 2.1875 4.21875 2.26562 4.6875C2.34375 5.15625 2.8125 5.46875 3.20312 5.39062ZM20.9375 3.82812C21.4844 3.75 21.9531 3.82813 22.4219 4.14062C22.8125 4.45312 23.125 4.92188 23.2031 5.39062C23.2812 5.78125 23.5938 6.09375 23.9844 6.09375H24.1406C24.6094 6.01562 24.9219 5.625 24.8438 5.15625C24.6875 4.0625 25.3906 3.04688 26.4844 2.89062C26.9531 2.8125 27.2656 2.42188 27.1875 1.95312C27.1094 1.48438 26.7187 1.17188 26.25 1.25C25 1.48438 24.1406 2.1875 23.5938 3.125C23.5156 3.04688 23.4375 2.96875 23.2812 2.89062C22.5 2.34375 21.5625 2.10938 20.625 2.26562C20.1562 2.34375 19.8438 2.73438 19.9219 3.20312C20.0781 3.59375 20.4688 3.90625 20.9375 3.82812ZM47.0312 25.3125H36.25C35.7812 25.3125 35.4688 25.7031 35.4688 26.0938V32.9688H48.4375C48.9062 32.9688 49.2969 32.5781 49.2188 32.0312C48.9844 30.3906 48.5156 27.0312 47.7344 25.625C47.5781 25.4688 47.3438 25.3125 47.0312 25.3125ZM7.65625 26.5625V31.7969C7.65625 32.2656 8.04688 32.5781 8.4375 32.5781H13.6719C14.1406 32.5781 14.4531 32.1875 14.4531 31.7969V26.5625C14.4531 26.0938 14.0625 25.7812 13.6719 25.7812H8.4375C7.96875 25.7812 7.65625 26.1719 7.65625 26.5625ZM7.65625 26.5625V31.7969C7.65625 32.2656 8.04688 32.5781 8.4375 32.5781H13.6719C14.1406 32.5781 14.4531 32.1875 14.4531 31.7969V26.5625C14.4531 26.0938 14.0625 25.7812 13.6719 25.7812H8.4375C7.96875 25.7812 7.65625 26.1719 7.65625 26.5625ZM7.65625 26.5625V31.7969C7.65625 32.2656 8.04688 32.5781 8.4375 32.5781H13.6719C14.1406 32.5781 14.4531 32.1875 14.4531 31.7969V26.5625C14.4531 26.0938 14.0625 25.7812 13.6719 25.7812H8.4375C7.96875 25.7812 7.65625 26.1719 7.65625 26.5625ZM21.5625 25.7812V32.6562H28.4375V25.7812H21.5625ZM21.5625 25.7812V32.6562H28.4375V25.7812H21.5625ZM7.65625 26.5625V31.7969C7.65625 32.2656 8.04688 32.5781 8.4375 32.5781H13.6719C14.1406 32.5781 14.4531 32.1875 14.4531 31.7969V26.5625C14.4531 26.0938 14.0625 25.7812 13.6719 25.7812H8.4375C7.96875 25.7812 7.65625 26.1719 7.65625 26.5625ZM34.6094 34.6875C34.1406 34.6875 33.8281 34.2969 33.8281 33.9062V24.5312C33.8281 24.0625 34.2188 23.75 34.6094 23.75H44.5312C45.3125 23.75 45.625 22.8125 45.0781 22.3438C42.6562 20.0781 39.4531 18.6719 35.8594 18.6719H3.04688C1.5625 18.6719 0.3125 19.8438 0.3125 21.4062V41.5625C0.3125 42.0312 0.703125 42.3438 1.09375 42.3438H2.96875C4.0625 40.4688 6.01563 39.375 8.20313 39.375C10.2344 39.375 12.0312 40.3906 13.2031 41.9531C13.3594 42.1875 13.5938 42.3438 13.9062 42.3438H36.0938C36.3281 42.3438 36.6406 42.1875 36.7969 41.9531C37.9687 40.3125 39.7656 39.375 41.7969 39.375C43.75 39.375 45.625 40.3906 46.7969 41.9531C46.9531 42.1875 47.1875 42.3438 47.5 42.3438H48.5938C49.0625 42.3438 49.375 41.9531 49.375 41.5625V35.625C49.375 35.1562 48.9844 34.8438 48.5938 34.8438H34.6094V34.6875ZM16.0938 33.4375C16.0938 33.9062 15.7031 34.2188 15.3125 34.2188H6.79688C6.32812 34.2188 6.01562 33.8281 6.01562 33.4375V25C6.01562 24.5312 6.40625 24.2188 6.79688 24.2188H15.3125C15.7813 24.2188 16.0938 24.6094 16.0938 25V33.4375ZM30.0781 33.4375C30.0781 33.9062 29.6875 34.2188 29.2969 34.2188H20.7812C20.3125 34.2188 20 33.8281 20 33.4375V25C20 24.5312 20.3906 24.2188 20.7812 24.2188H29.2969C29.7656 24.2188 30.0781 24.6094 30.0781 25V33.4375ZM21.5625 32.6562H28.4375V25.7812H21.5625V32.6562ZM8.4375 32.6562H13.6719C14.1406 32.6562 14.4531 32.2656 14.4531 31.875V26.5625C14.4531 26.0938 14.0625 25.7812 13.6719 25.7812H8.4375C7.96875 25.7812 7.65625 26.1719 7.65625 26.5625V31.7969C7.65625 32.2656 7.96875 32.6562 8.4375 32.6562ZM7.65625 26.5625V31.7969C7.65625 32.2656 8.04688 32.5781 8.4375 32.5781H13.6719C14.1406 32.5781 14.4531 32.1875 14.4531 31.7969V26.5625C14.4531 26.0938 14.0625 25.7812 13.6719 25.7812H8.4375C7.96875 25.7812 7.65625 26.1719 7.65625 26.5625ZM21.5625 25.7812V32.6562H28.4375V25.7812H21.5625ZM21.5625 26.5625V31.7969C21.5625 32.2656 21.9531 32.5781 22.3438 32.5781H27.5781C28.0469 32.5781 28.3594 32.1875 28.3594 31.7969V26.5625C28.3594 26.0938 27.9687 25.7812 27.5781 25.7812H22.3438C21.9531 25.7812 21.5625 26.1719 21.5625 26.5625ZM7.65625 26.5625V31.7969C7.65625 32.2656 8.04688 32.5781 8.4375 32.5781H13.6719C14.1406 32.5781 14.4531 32.1875 14.4531 31.7969V26.5625C14.4531 26.0938 14.0625 25.7812 13.6719 25.7812H8.4375C7.96875 25.7812 7.65625 26.1719 7.65625 26.5625ZM2.26562 46.1719V44.7656C2.26562 44.2969 1.95312 43.9844 1.48438 43.9062H1.25C0.78125 43.9062 0.390625 44.2969 0.390625 44.6875V46.0938C0.390625 46.5625 0.78125 46.9531 1.25 46.875H1.48438C1.95312 47.0312 2.26562 46.6406 2.26562 46.1719ZM9.6875 44.7656C9.375 44.2188 8.82812 43.8281 8.20313 43.8281C7.57813 43.8281 7.03125 44.1406 6.79688 44.6875C6.71875 44.9219 6.64063 45.1562 6.64063 45.3906C6.64063 45.625 6.71875 45.8594 6.79688 46.0938C7.10938 46.6406 7.65625 47.0312 8.28125 47.0312C8.90625 47.0312 9.45312 46.7188 9.6875 46.1719C9.84375 45.9375 9.84375 45.7031 9.84375 45.4688C9.92188 45.2344 9.84375 45 9.6875 44.7656ZM9.6875 44.7656C9.375 44.2188 8.82812 43.8281 8.20313 43.8281C7.57813 43.8281 7.03125 44.1406 6.79688 44.6875C6.71875 44.9219 6.64063 45.1562 6.64063 45.3906C6.64063 45.625 6.71875 45.8594 6.79688 46.0938C7.10938 46.6406 7.65625 47.0312 8.28125 47.0312C8.90625 47.0312 9.45312 46.7188 9.6875 46.1719C9.84375 45.9375 9.84375 45.7031 9.84375 45.4688C9.92188 45.2344 9.84375 45 9.6875 44.7656ZM12.3438 43.5156C11.5625 41.9531 10 41.0156 8.28125 41.0156C6.5625 41.0156 5 41.9531 4.21875 43.5156C3.90625 44.1406 3.75 44.8438 3.75 45.5469V46.25C3.75 46.3281 3.75 46.4844 3.82812 46.5625C3.82812 46.6406 3.82812 46.7188 3.90625 46.7188C3.90625 46.7969 3.98437 46.9531 3.98437 47.0312C3.98437 47.1094 4.0625 47.1875 4.0625 47.1875C4.14062 47.2656 4.14062 47.3438 4.21875 47.5C4.21875 47.5781 4.29688 47.5781 4.29688 47.6562C5.07812 49.1406 6.5625 50.0781 8.28125 50.0781C10 50.0781 11.5625 49.1406 12.3438 47.5781C12.6562 46.9531 12.8125 46.25 12.8125 45.5469C12.8125 44.7656 12.6562 44.0625 12.3438 43.5156ZM11.1719 46.9531C10.625 48.0469 9.53125 48.75 8.28125 48.75C7.03125 48.75 5.9375 48.0469 5.39062 46.9531C5.15625 46.4844 5.07812 46.0156 5.07812 45.5469C5.07812 45.0781 5.15625 44.5312 5.39062 44.0625C5.9375 42.9688 7.03125 42.2656 8.28125 42.2656C9.53125 42.2656 10.625 42.9688 11.1719 44.0625C11.4062 44.5312 11.4844 45 11.4844 45.4688C11.5625 46.0156 11.4062 46.4844 11.1719 46.9531ZM8.28125 43.8281C7.65625 43.8281 7.10938 44.1406 6.875 44.6875C6.79688 44.9219 6.71875 45.1562 6.71875 45.3906C6.71875 45.625 6.79688 45.8594 6.875 46.0938C7.1875 46.6406 7.73438 47.0312 8.35938 47.0312C8.98438 47.0312 9.53125 46.7188 9.76562 46.1719C9.92188 45.9375 9.92188 45.7031 9.92188 45.4688C9.92188 45.2344 9.84375 45 9.76562 44.7656C9.45312 44.2188 8.90625 43.8281 8.28125 43.8281ZM35 43.9844H15.0781C14.6094 43.9844 14.2969 44.375 14.2969 44.7656V46.1719C14.2969 46.6406 14.6875 47.0312 15.0781 47.0312C15.0781 47.0312 31.1719 47.0312 35 46.9531C35.4688 46.9531 35.7812 46.5625 35.7812 46.0938V44.7656C35.7812 44.375 35.4688 43.9844 35 43.9844ZM45.8594 43.5156C45.0781 41.9531 43.5156 41.0156 41.7969 41.0156C40.0781 41.0156 38.5156 41.9531 37.7344 43.5156C37.4219 44.1406 37.2656 44.8438 37.2656 45.5469V46.25C37.2656 46.3281 37.2656 46.4844 37.3438 46.5625C37.3438 46.6406 37.3438 46.7188 37.4219 46.7969C37.4219 46.875 37.5 46.9531 37.5 47.1094C37.5 47.1875 37.5781 47.2656 37.5781 47.3438C37.5781 47.4219 37.6562 47.5 37.6562 47.5781C37.6562 47.6562 37.7344 47.6562 37.7344 47.7344C38.5156 49.2188 40 50.1562 41.7188 50.1562C43.4375 50.1562 45 49.1406 45.7812 47.6562C46.0937 47.0312 46.25 46.3281 46.25 45.625C46.3281 44.7656 46.1719 44.0625 45.8594 43.5156ZM44.6875 46.9531C44.1406 48.0469 43.0469 48.75 41.7969 48.75C40.5469 48.75 39.4531 48.0469 38.9062 46.9531C38.6719 46.4844 38.5938 46.0156 38.5938 45.5469C38.5938 45.0781 38.75 44.5312 38.9062 44.0625C39.4531 42.9688 40.5469 42.2656 41.7969 42.2656C43.0469 42.2656 44.1406 42.9688 44.6875 44.0625C44.9219 44.5312 45 45 45 45.4688C45.0781 46.0156 44.9219 46.4844 44.6875 46.9531ZM41.7969 43.8281C41.1719 43.8281 40.625 44.1406 40.3125 44.6875C40.2344 44.9219 40.1562 45.1562 40.1562 45.3906C40.1562 45.625 40.2344 45.8594 40.3125 46.0938C40.625 46.6406 41.1719 47.0312 41.7969 47.0312C42.4219 47.0312 42.9688 46.7188 43.2031 46.1719C43.2812 45.9375 43.3594 45.7031 43.3594 45.4688C43.3594 45.2344 43.2812 45 43.2031 44.7656C42.9688 44.2188 42.4219 43.8281 41.7969 43.8281ZM47.7344 44.6875V46.25C47.7344 46.7188 48.0469 47.0312 48.5156 47.0312C48.9062 47.0312 49.2969 46.7188 49.2969 46.25V44.6875C49.2969 44.2188 48.9062 43.9062 48.5156 43.9062C48.125 43.9844 47.7344 44.2969 47.7344 44.6875Z" fill="white"/>
</svg>
