<svg width="48" height="48" viewBox="0 0 48 48" fill="none" xmlns="http://www.w3.org/2000/svg">
<path d="M13.3577 7.49995L15.7502 15.9525C15.7956 16.1147 15.8942 16.2569 16.0303 16.3562C16.1663 16.4556 16.3319 16.5062 16.5002 16.5H31.5002C31.6685 16.5062 31.8341 16.4556 31.9701 16.3562C32.1062 16.2569 32.2048 16.1147 32.2502 15.9525L34.6427 7.49995C35.0806 7.47217 35.5007 7.31697 35.8515 7.05346C36.2023 6.78994 36.4684 6.42962 36.6171 6.01683C36.7658 5.60403 36.7905 5.15678 36.6882 4.73012C36.586 4.30346 36.3612 3.91599 36.0416 3.61542C35.722 3.31484 35.3215 3.11427 34.8894 3.03838C34.4572 2.9625 34.0123 3.01461 33.6094 3.1883C33.2065 3.362 32.8632 3.6497 32.6217 4.016C32.3802 4.3823 32.2511 4.81121 32.2502 5.24995C32.253 5.4531 32.2832 5.65493 32.3402 5.84995L27.3452 9.34495L25.6877 5.24995C25.9741 4.9252 26.1607 4.5247 26.2251 4.09651C26.2896 3.66833 26.2291 3.23064 26.0509 2.83598C25.8728 2.44132 25.5845 2.10646 25.2208 1.87156C24.857 1.63666 24.4332 1.51172 24.0002 1.51172C23.5672 1.51172 23.1434 1.63666 22.7796 1.87156C22.4159 2.10646 22.1276 2.44132 21.9495 2.83598C21.7713 3.23064 21.7108 3.66833 21.7752 4.09651C21.8397 4.5247 22.0263 4.9252 22.3127 5.24995L20.6552 9.37495L15.6602 5.84995C15.7507 5.5393 15.7731 5.21278 15.726 4.89266C15.6788 4.57255 15.5632 4.26637 15.3869 3.99502C15.2107 3.72366 14.978 3.49352 14.7047 3.32027C14.4314 3.14703 14.1239 3.03477 13.8033 2.99115C13.4827 2.94753 13.1565 2.97357 12.8468 3.06751C12.5372 3.16144 12.2515 3.32105 12.0091 3.53545C11.7668 3.74986 11.5735 4.01401 11.4426 4.30989C11.3116 4.60576 11.246 4.92641 11.2502 5.24995C11.249 5.8228 11.4664 6.37452 11.858 6.79261C12.2497 7.2107 12.786 7.46367 13.3577 7.49995ZM34.5002 4.49995C34.6485 4.49995 34.7935 4.54394 34.9169 4.62635C35.0402 4.70876 35.1363 4.8259 35.1931 4.96294C35.2499 5.09999 35.2647 5.25079 35.2358 5.39627C35.2068 5.54176 35.1354 5.67539 35.0305 5.78028C34.9256 5.88517 34.792 5.9566 34.6465 5.98554C34.501 6.01448 34.3502 5.99963 34.2132 5.94286C34.0761 5.8861 33.959 5.78997 33.8766 5.66663C33.7942 5.54329 33.7502 5.39829 33.7502 5.24995C33.7502 5.05104 33.8292 4.86028 33.9699 4.71962C34.1105 4.57897 34.3013 4.49995 34.5002 4.49995ZM24.0002 2.99995C24.1485 2.99995 24.2935 3.04394 24.4169 3.12635C24.5402 3.20876 24.6363 3.3259 24.6931 3.46294C24.7499 3.59999 24.7647 3.75079 24.7358 3.89627C24.7068 4.04176 24.6354 4.17539 24.5305 4.28028C24.4256 4.38517 24.292 4.4566 24.1465 4.48554C24.001 4.51448 23.8502 4.49963 23.7132 4.44286C23.5761 4.3861 23.459 4.28997 23.3766 4.16663C23.2942 4.04329 23.2502 3.89829 23.2502 3.74995C23.2502 3.55104 23.3292 3.36028 23.4699 3.21962C23.6105 3.07897 23.8013 2.99995 24.0002 2.99995ZM13.5002 4.49995C13.6485 4.49995 13.7935 4.54394 13.9169 4.62635C14.0402 4.70876 14.1363 4.8259 14.1931 4.96294C14.2499 5.09999 14.2647 5.25079 14.2358 5.39627C14.2068 5.54176 14.1354 5.67539 14.0305 5.78028C13.9256 5.88517 13.792 5.9566 13.6465 5.98554C13.501 6.01448 13.3502 5.99963 13.2132 5.94286C13.0761 5.8861 12.959 5.78997 12.8766 5.66663C12.7942 5.54329 12.7502 5.39829 12.7502 5.24995C12.7502 5.05104 12.8292 4.86028 12.9699 4.71962C13.1105 4.57897 13.3013 4.49995 13.5002 4.49995Z" fill="white"/>
<path d="M24 30C27.3137 30 30 27.3137 30 24C30 20.6863 27.3137 18 24 18C20.6863 18 18 20.6863 18 24C18 27.3137 20.6863 30 24 30Z" fill="white"/>
<path d="M11.25 31.5C14.1495 31.5 16.5 29.1495 16.5 26.25C16.5 23.3505 14.1495 21 11.25 21C8.35051 21 6 23.3505 6 26.25C6 29.1495 8.35051 31.5 11.25 31.5Z" fill="white"/>
<path d="M8.25 31.5975C8.1357 31.5327 8.00638 31.4991 7.875 31.5C6.18485 31.502 4.5645 32.1743 3.36939 33.3694C2.17427 34.5645 1.50198 36.1849 1.5 37.875V42.75C1.5 42.9489 1.57902 43.1397 1.71967 43.2803C1.86032 43.421 2.05109 43.5 2.25 43.5H11.25V37.3125C11.2512 35.5924 11.7571 33.9104 12.705 32.475L11.25 33.3L8.25 31.5975ZM44.6325 33.3675C44.042 32.7758 43.3406 32.3062 42.5684 31.9858C41.7963 31.6653 40.9685 31.5003 40.1325 31.5C40.0037 31.5004 39.8771 31.534 39.765 31.5975L36.75 33.3L35.295 32.475C36.2429 33.9104 36.7488 35.5924 36.75 37.3125V43.5H45.75C45.9489 43.5 46.1397 43.421 46.2803 43.2803C46.421 43.1397 46.5 42.9489 46.5 42.75V37.875C46.5007 37.0377 46.3362 36.2086 46.0157 35.4351C45.6952 34.6616 45.2252 33.9589 44.6325 33.3675Z" fill="white"/>
<path d="M36.75 31.5C39.6495 31.5 42 29.1495 42 26.25C42 23.3505 39.6495 21 36.75 21C33.8505 21 31.5 23.3505 31.5 26.25C31.5 29.1495 33.8505 31.5 36.75 31.5Z" fill="white"/>
<path d="M27.9375 30C27.7846 30.0004 27.6354 30.0475 27.51 30.135L24 32.565L20.49 30.135C20.3646 30.0475 20.2154 30.0004 20.0625 30C18.1237 30.002 16.2649 30.773 14.894 32.144C13.523 33.5149 12.752 35.3737 12.75 37.3125V45.75C12.75 45.9489 12.829 46.1397 12.9697 46.2803C13.1103 46.421 13.3011 46.5 13.5 46.5H34.5C34.6989 46.5 34.8897 46.421 35.0303 46.2803C35.171 46.1397 35.25 45.9489 35.25 45.75V37.3125C35.248 35.3737 34.477 33.5149 33.106 32.144C31.7351 30.773 29.8763 30.002 27.9375 30Z" fill="white"/>
</svg>
